<svg xmlns="http://www.w3.org/2000/svg" viewBox="0 0 541.22 463.56"><title>logo2</title><g id="Layer_2" data-name="Layer 2"><g id="Layer_4" data-name="Layer 4"><path d="M492.43,176H430.76V64c0-35.35-71.64-64-160-64s-160,28.65-160,64V176H48A48,48,0,0,0,2.55,239.33l64.39,191a48.74,48.74,0,0,0,46.2,33.18H428.38a48.74,48.74,0,0,0,46.2-33.18l64.05-190.06A48.75,48.75,0,0,0,492.43,176ZM174.58,163.2V89.6h.18c0-21.21,43-38.4,96-38.4s96,17.19,96,38.4V176h-192V163.2Zm237.6,111.33L287.73,399a24,24,0,0,1-33.94,0l-73.54-73.54a24,24,0,0,1,33.94-33.94l56.57,56.57L378.24,240.59a24,24,0,1,1,33.94,33.94Z"/></g></g></svg>